<svg xmlns="http://www.w3.org/2000/svg" viewBox="0 0 1440 720" fill="none">
  <defs>
    <radialGradient id="glow" cx="76%" cy="48%" r="48%">
      <stop stop-color="#5265C8" stop-opacity=".16"/>
      <stop offset=".56" stop-color="#293A79" stop-opacity=".07"/>
      <stop offset="1" stop-color="#0B1020" stop-opacity="0"/>
    </radialGradient>
    <linearGradient id="die" x1="851" y1="248" x2="1121" y2="495" gradientUnits="userSpaceOnUse">
      <stop stop-color="#9A8BFF" stop-opacity=".16"/>
      <stop offset="1" stop-color="#65BDF5" stop-opacity=".08"/>
    </linearGradient>
    <pattern id="microgrid" width="18" height="18" patternUnits="userSpaceOnUse">
      <path d="M18 0H0V18" stroke="#9DAEFF" stroke-opacity=".14" stroke-width=".55"/>
    </pattern>
  </defs>

  <rect width="1440" height="720" fill="url(#glow)"/>

  <g stroke="#90A7FF" stroke-opacity=".15" stroke-width="1">
    <path d="M768 0v100h86v65h64"/>
    <path d="M911 0v81h61v47h98"/>
    <path d="M1119 0v83h-53v64h-31"/>
    <path d="M1238 0v104h-77v41"/>
    <path d="M768 720V611h95v-58h54"/>
    <path d="M914 720V618h66v-55h71"/>
    <path d="M1137 720V615h-63v-54h-39"/>
    <path d="M1281 720V608h-71v-59"/>
    <path d="M1440 199h-95v67h-50"/>
    <path d="M1440 293h-64v46h-43"/>
    <path d="M1440 489h-91v-63h-45"/>
    <path d="M1440 578h-62v-48h-50"/>
  </g>

  <g fill="#A5B9FF" fill-opacity=".34">
    <circle cx="768" cy="100" r="2.5"/><circle cx="918" cy="165" r="2.5"/>
    <circle cx="972" cy="81" r="2.5"/><circle cx="1066" cy="83" r="2.5"/>
    <circle cx="854" cy="611" r="2.5"/><circle cx="980" cy="618" r="2.5"/>
    <circle cx="1074" cy="615" r="2.5"/><circle cx="1210" cy="608" r="2.5"/>
    <circle cx="1295" cy="266" r="2.5"/><circle cx="1333" cy="339" r="2.5"/>
    <circle cx="1304" cy="426" r="2.5"/><circle cx="1328" cy="530" r="2.5"/>
  </g>

  <g transform="rotate(-13 1013 365)">
    <ellipse cx="1013" cy="369" rx="283" ry="236" stroke="#8197F5" stroke-opacity=".11"/>
    <ellipse cx="1013" cy="369" rx="244" ry="203" stroke="#8197F5" stroke-opacity=".12"/>
    <ellipse cx="1013" cy="369" rx="205" ry="170" stroke="#8197F5" stroke-opacity=".13"/>
    <ellipse cx="1013" cy="369" rx="166" ry="137" stroke="#8197F5" stroke-opacity=".12"/>
    <ellipse cx="1013" cy="369" rx="126" ry="104" stroke="#8197F5" stroke-opacity=".11"/>
  </g>

  <g stroke="#89A4FF" stroke-opacity=".2" stroke-width="1">
    <path d="M879 235v-37h-54v-39"/>
    <path d="M925 235v-52h-21v-27"/>
    <path d="M971 235v-74"/>
    <path d="M1017 235v-57h28v-34"/>
    <path d="M1063 235v-39h57v-37"/>
    <path d="M1109 235v-25h88v-51"/>
    <path d="M879 495v36h-54v41"/>
    <path d="M925 495v52h-21v30"/>
    <path d="M971 495v74"/>
    <path d="M1017 495v57h28v39"/>
    <path d="M1063 495v39h57v37"/>
    <path d="M1109 495v25h88v51"/>
    <path d="M851 263h-48v-43h-45"/>
    <path d="M851 305h-67v-21h-35"/>
    <path d="M851 347h-83v-37h-37"/>
    <path d="M851 389h-78v32h-41"/>
    <path d="M851 431h-58v29h-45"/>
    <path d="M1140 263h49v-43h46"/>
    <path d="M1140 305h68v-21h36"/>
    <path d="M1140 347h83v-37h39"/>
    <path d="M1140 389h78v32h43"/>
    <path d="M1140 431h59v29h46"/>
  </g>

  <g fill="#A5B9FF" fill-opacity=".38">
    <circle cx="825" cy="159" r="2.5"/><circle cx="904" cy="156" r="2.5"/>
    <circle cx="971" cy="161" r="2.5"/><circle cx="1045" cy="144" r="2.5"/>
    <circle cx="1120" cy="159" r="2.5"/><circle cx="1197" cy="149" r="2.5"/>
    <circle cx="825" cy="572" r="2.5"/><circle cx="904" cy="577" r="2.5"/>
    <circle cx="971" cy="569" r="2.5"/><circle cx="1045" cy="586" r="2.5"/>
    <circle cx="1120" cy="571" r="2.5"/><circle cx="1197" cy="561" r="2.5"/>
  </g>

  <rect x="851" y="235" width="289" height="260" rx="16" fill="#111A32" fill-opacity=".68" stroke="#A4B2FF" stroke-opacity=".32"/>
  <rect x="865" y="249" width="261" height="232" rx="10" fill="url(#microgrid)" stroke="#8DA5FF" stroke-opacity=".16"/>
  <rect x="907" y="285" width="177" height="160" rx="9" fill="url(#die)" stroke="#B7ABFF" stroke-opacity=".42"/>
  <path d="M943 321h105v88H943z" fill="#111A32" fill-opacity=".72" stroke="#AFC4FF" stroke-opacity=".38"/>
  <path d="M961 339h69v52h-69z" fill="#7CA7F8" fill-opacity=".08" stroke="#8FC7FF" stroke-opacity=".48"/>
  <path d="M976 354h39v22h-39z" fill="#B7ABFF" fill-opacity=".15" stroke="#D0C5FF" stroke-opacity=".58"/>
  <path d="M994 330v9m0 52v9m-42-34h9m69 0h9" stroke="#9DC0FF" stroke-opacity=".6" stroke-width="2"/>
  <g fill="#AFC4FF" fill-opacity=".48">
    <circle cx="879" cy="261" r="2"/><circle cx="1112" cy="261" r="2"/>
    <circle cx="879" cy="469" r="2"/><circle cx="1112" cy="469" r="2"/>
    <circle cx="895" cy="273" r="1.5"/><circle cx="1097" cy="273" r="1.5"/>
    <circle cx="895" cy="457" r="1.5"/><circle cx="1097" cy="457" r="1.5"/>
  </g>
</svg>
